G04 #@! TF.GenerationSoftware,KiCad,Pcbnew,(5.1.2)-1*
G04 #@! TF.CreationDate,2022-10-09T20:42:29+09:00*
G04 #@! TF.ProjectId,ble5,626c6535-2e6b-4696-9361-645f70636258,v2.1*
G04 #@! TF.SameCoordinates,Original*
G04 #@! TF.FileFunction,Copper,L1,Top*
G04 #@! TF.FilePolarity,Positive*
%FSLAX46Y46*%
G04 Gerber Fmt 4.6, Leading zero omitted, Abs format (unit mm)*
G04 Created by KiCad (PCBNEW (5.1.2)-1) date 2022-10-09 20:42:29*
%MOMM*%
%LPD*%
G04 APERTURE LIST*
%ADD10R,1.000000X1.000000*%
%ADD11O,2.400000X0.800000*%
%ADD12O,0.800000X2.400000*%
%ADD13R,1.100000X1.000000*%
%ADD14R,1.049020X1.079500*%
%ADD15O,3.048000X1.524000*%
%ADD16R,1.050000X0.650000*%
%ADD17O,1.524000X1.800000*%
%ADD18C,0.800000*%
%ADD19C,0.300000*%
%ADD20C,0.250000*%
%ADD21C,0.254000*%
G04 APERTURE END LIST*
D10*
X128800000Y-50800000D03*
X126500000Y-48900000D03*
D11*
X131500000Y-40000000D03*
X131500000Y-41200000D03*
X131500000Y-42400000D03*
X131500000Y-43600000D03*
X131500000Y-44800000D03*
X131500000Y-46000000D03*
X131500000Y-47200000D03*
X131500000Y-48400000D03*
X131500000Y-49600000D03*
X131500000Y-50800000D03*
X131500000Y-52000000D03*
X131500000Y-53200000D03*
D12*
X129450000Y-53300000D03*
X128250000Y-53300000D03*
X127050000Y-53300000D03*
X125850000Y-53300000D03*
X124650000Y-53300000D03*
X123450000Y-53300000D03*
X122250000Y-53300000D03*
D11*
X120200000Y-53200000D03*
X120200000Y-52000000D03*
X120200000Y-50800000D03*
X120200000Y-49600000D03*
X120200000Y-48400000D03*
X120200000Y-47200000D03*
X120200000Y-46000000D03*
X120200000Y-44800000D03*
X120200000Y-43600000D03*
X120200000Y-42400000D03*
X120200000Y-41200000D03*
X120200000Y-40000000D03*
D10*
X117250000Y-41200000D03*
X114600000Y-41200000D03*
D13*
X119250000Y-55950000D03*
X120950000Y-55950000D03*
X124850000Y-59100000D03*
X126550000Y-59100000D03*
D14*
X126573760Y-57200000D03*
X124826240Y-57200000D03*
D15*
X114300000Y-44450000D03*
X114300000Y-46990000D03*
X114300000Y-49530000D03*
X114300000Y-52070000D03*
X114300000Y-54610000D03*
X114300000Y-57150000D03*
X114300000Y-59690000D03*
X114300000Y-62230000D03*
X137050000Y-44450000D03*
X137050000Y-46990000D03*
X137050000Y-49530000D03*
X137050000Y-52070000D03*
X137050000Y-54610000D03*
X137050000Y-57150000D03*
X137050000Y-59690000D03*
X137050000Y-62230000D03*
D13*
X119650000Y-62400000D03*
X117950000Y-62400000D03*
X133350000Y-62500000D03*
X131650000Y-62500000D03*
D16*
X122100000Y-59850000D03*
X117950000Y-59850000D03*
X122100000Y-57700000D03*
X117950000Y-57700000D03*
X129050000Y-57600000D03*
X133200000Y-57600000D03*
X129050000Y-59750000D03*
X133200000Y-59750000D03*
D17*
X128700000Y-62500000D03*
X126700000Y-62500000D03*
X124700000Y-62500000D03*
X122700000Y-62500000D03*
D18*
X129150000Y-46095000D03*
X118199850Y-53649850D03*
X122250000Y-50162800D03*
X120841700Y-62245000D03*
X123379700Y-58020300D03*
X116750000Y-51150000D03*
X123400000Y-55450000D03*
X119051400Y-54603200D03*
X133799992Y-48800000D03*
X127350000Y-50950000D03*
X130718080Y-54836820D03*
X131743780Y-55862520D03*
X123950002Y-51200000D03*
X125392000Y-51522700D03*
X118384100Y-49642690D03*
X118390100Y-48385700D03*
D19*
X119250000Y-55950000D02*
X120181100Y-55018900D01*
X120181100Y-55018900D02*
X120181100Y-53200000D01*
X122700000Y-62500000D02*
X122700000Y-61249700D01*
X122700000Y-61249700D02*
X123377100Y-60572600D01*
X123377100Y-60572600D02*
X123377100Y-59952100D01*
X132324700Y-57600000D02*
X132180700Y-57456000D01*
X129925300Y-57600000D02*
X130069300Y-57456000D01*
X130069300Y-57456000D02*
X132180700Y-57456000D01*
X126550000Y-59100000D02*
X126550000Y-59251700D01*
X120181100Y-53200000D02*
X118649700Y-53200000D01*
X120200000Y-53200000D02*
X120181100Y-53200000D01*
X133200000Y-57600000D02*
X132324700Y-57600000D01*
X129050000Y-57600000D02*
X129925300Y-57600000D01*
X116550000Y-40000000D02*
X120200000Y-40000000D01*
X115987400Y-40562600D02*
X116550000Y-40000000D01*
X114300000Y-44450000D02*
X115987400Y-42762600D01*
X115987400Y-42762600D02*
X115987400Y-40562600D01*
X129800000Y-45445000D02*
X129549999Y-45695001D01*
X129800000Y-40900000D02*
X129800000Y-45445000D01*
X131500000Y-40000000D02*
X130700000Y-40000000D01*
X129549999Y-45695001D02*
X129150000Y-46095000D01*
X130700000Y-40000000D02*
X129800000Y-40900000D01*
X118649700Y-53200000D02*
X118199850Y-53649850D01*
X117450000Y-54399700D02*
X118649700Y-53200000D01*
X117950000Y-57700000D02*
X117450000Y-57200000D01*
X117450000Y-57200000D02*
X117450000Y-54399700D01*
X133440000Y-53200000D02*
X131500000Y-53200000D01*
X133440000Y-55955700D02*
X133440000Y-53200000D01*
X132180700Y-57456000D02*
X132180700Y-57215000D01*
X132180700Y-57215000D02*
X133440000Y-55955700D01*
X127840000Y-57600000D02*
X129050000Y-57600000D01*
X127840000Y-58850000D02*
X127840000Y-57600000D01*
X126550000Y-59251700D02*
X127438300Y-59251700D01*
X127438300Y-59251700D02*
X127840000Y-58850000D01*
X123755000Y-60330000D02*
X123377100Y-59952100D01*
X126290000Y-60330000D02*
X123755000Y-60330000D01*
X126550000Y-59251700D02*
X126550000Y-60070000D01*
X126550000Y-60070000D02*
X126290000Y-60330000D01*
X122100000Y-58230000D02*
X122100000Y-57700000D01*
X123377100Y-59952100D02*
X123377100Y-59507100D01*
X123377100Y-59507100D02*
X122100000Y-58230000D01*
X121224700Y-57700000D02*
X122100000Y-57700000D01*
X120590000Y-57700000D02*
X121224700Y-57700000D01*
X119265100Y-56375100D02*
X120590000Y-57700000D01*
X119250000Y-55950000D02*
X119250000Y-56375100D01*
X119250000Y-56375100D02*
X119265100Y-56375100D01*
X124700000Y-62500000D02*
X125975300Y-61224700D01*
X125975300Y-61224700D02*
X130975000Y-61224700D01*
X130975000Y-61224700D02*
X131400000Y-61649700D01*
X131400000Y-62500000D02*
X131400000Y-61649700D01*
X122250000Y-53300000D02*
X122250000Y-50162800D01*
X122250000Y-53300000D02*
X122250000Y-54850300D01*
X121851300Y-55950000D02*
X121851300Y-55249000D01*
X121851300Y-55249000D02*
X122250000Y-54850300D01*
X121850300Y-55950000D02*
X121851300Y-55950000D01*
X120841700Y-62245000D02*
X120705300Y-62245000D01*
X120705300Y-62245000D02*
X120550300Y-62400000D01*
X119650000Y-62400000D02*
X120550300Y-62400000D01*
X120950000Y-55950000D02*
X121850300Y-55950000D01*
X125523800Y-56150000D02*
X126573800Y-57200000D01*
X123950000Y-56150000D02*
X125523800Y-56150000D01*
X123379700Y-57012400D02*
X123379700Y-56720300D01*
X123379700Y-56720300D02*
X123950000Y-56150000D01*
X123379700Y-57012400D02*
X123379700Y-58020300D01*
X123017300Y-56650000D02*
X123379700Y-57012400D01*
X122038700Y-56650000D02*
X123017300Y-56650000D01*
X121851300Y-55950000D02*
X121851300Y-56462600D01*
X121851300Y-56462600D02*
X122038700Y-56650000D01*
X124826200Y-57200000D02*
X124826200Y-58090100D01*
X124826200Y-58090100D02*
X124850000Y-58113900D01*
X124850000Y-58113900D02*
X124850000Y-59100000D01*
X135410800Y-46990000D02*
X135285600Y-46990000D01*
X137160000Y-46990000D02*
X135410800Y-46990000D01*
X133037600Y-59750000D02*
X133200000Y-59750000D01*
X132324700Y-59750000D02*
X129925300Y-59750000D01*
X133037600Y-59750000D02*
X132324700Y-59750000D01*
X132324700Y-59750000D02*
X132324700Y-60874400D01*
X132324700Y-60874400D02*
X133100000Y-61649700D01*
X129050000Y-59750000D02*
X129925300Y-59750000D01*
X133100000Y-62500000D02*
X133100000Y-61649700D01*
X134750000Y-47525600D02*
X135285600Y-46990000D01*
X134750000Y-59075300D02*
X134750000Y-47525600D01*
X133200000Y-59750000D02*
X134075300Y-59750000D01*
X134075300Y-59750000D02*
X134750000Y-59075300D01*
X133050300Y-41200000D02*
X131500000Y-41200000D01*
X134750000Y-42899700D02*
X133050300Y-41200000D01*
X135285600Y-46990000D02*
X134750000Y-46454400D01*
X134750000Y-46454400D02*
X134750000Y-42899700D01*
X120200000Y-47200000D02*
X118436198Y-47200000D01*
X118436198Y-47200000D02*
X117206300Y-48429898D01*
X114300000Y-54432903D02*
X114300000Y-54610000D01*
D20*
X116750000Y-51150000D02*
X116962600Y-51150000D01*
D19*
X117206300Y-48429898D02*
X117206300Y-50906300D01*
D20*
X116993700Y-50906300D02*
X116750000Y-51150000D01*
X117206300Y-50906300D02*
X116993700Y-50906300D01*
D19*
X116350000Y-57150000D02*
X114300000Y-57150000D01*
X116350000Y-53118309D02*
X116350000Y-57150000D01*
X120200000Y-50800000D02*
X118668309Y-50800000D01*
X118668309Y-50800000D02*
X116350000Y-53118309D01*
X119099900Y-41200000D02*
X120200000Y-41200000D01*
X116635900Y-43664000D02*
X119099900Y-41200000D01*
X114300000Y-46990000D02*
X116635900Y-44654100D01*
X116635900Y-44654100D02*
X116635900Y-43664000D01*
X115062000Y-49530000D02*
X116154690Y-48437310D01*
X114300000Y-49530000D02*
X115062000Y-49530000D01*
X116154690Y-48437310D02*
X116154690Y-47821957D01*
X118700000Y-42400000D02*
X120200000Y-42400000D01*
X116154690Y-47821957D02*
X117600000Y-46376647D01*
X117600000Y-46376647D02*
X117600000Y-43500000D01*
X117600000Y-43500000D02*
X118700000Y-42400000D01*
X118250000Y-43600000D02*
X120200000Y-43600000D01*
X118250000Y-46500000D02*
X118250000Y-43600000D01*
X116674700Y-48075300D02*
X118250000Y-46500000D01*
X116674700Y-49769500D02*
X116674700Y-48075300D01*
X114300000Y-52070000D02*
X114374200Y-52070000D01*
X114374200Y-52070000D02*
X116674700Y-49769500D01*
X123450000Y-55400000D02*
X123400000Y-55450000D01*
X123450000Y-53300000D02*
X123450000Y-55400000D01*
X115062000Y-62230000D02*
X114300000Y-62230000D01*
X120200000Y-52000000D02*
X118203715Y-52000000D01*
X116900000Y-58515117D02*
X116194010Y-59221107D01*
X116194010Y-59221107D02*
X116194010Y-61097990D01*
X116194010Y-61097990D02*
X115062000Y-62230000D01*
X118203715Y-52000000D02*
X116900000Y-53303715D01*
X116900000Y-53303715D02*
X116900000Y-58515117D01*
X117950000Y-59850000D02*
X118846600Y-59850000D01*
X117950000Y-62400000D02*
X117950000Y-61549700D01*
X117950000Y-59850000D02*
X117074700Y-59850000D01*
X117074700Y-59850000D02*
X117074700Y-60674400D01*
X117074700Y-60674400D02*
X117950000Y-61549700D01*
D20*
X118754642Y-57004990D02*
X120000000Y-58250348D01*
X118354990Y-57004990D02*
X118754642Y-57004990D01*
D19*
X120000000Y-59850000D02*
X122100000Y-59850000D01*
D20*
X120000000Y-58250348D02*
X120000000Y-59850000D01*
X119051400Y-54603200D02*
X118246800Y-54603200D01*
D19*
X118846600Y-59850000D02*
X120000000Y-59850000D01*
D20*
X118246800Y-54603200D02*
X118000000Y-54850000D01*
X118000000Y-54850000D02*
X118000000Y-56650000D01*
X118000000Y-56650000D02*
X118354990Y-57004990D01*
D19*
X131500000Y-42400000D02*
X132300000Y-42400000D01*
X133799992Y-48234315D02*
X133799992Y-48800000D01*
X133799992Y-43899992D02*
X133799992Y-48234315D01*
X132300000Y-42400000D02*
X133799992Y-43899992D01*
X127050000Y-51250000D02*
X127350000Y-50950000D01*
X127050000Y-53300000D02*
X127050000Y-51250000D01*
X125850000Y-54100000D02*
X127000299Y-55250299D01*
X125850000Y-53300000D02*
X125850000Y-54100000D01*
X130304601Y-55250299D02*
X130318081Y-55236819D01*
X130318081Y-55236819D02*
X130718080Y-54836820D01*
X127000299Y-55250299D02*
X130304601Y-55250299D01*
X125971726Y-55862520D02*
X131178095Y-55862520D01*
X125350000Y-54800000D02*
X125350000Y-55240794D01*
X124650000Y-53300000D02*
X124650000Y-54100000D01*
X124650000Y-54100000D02*
X125350000Y-54800000D01*
X125350000Y-55240794D02*
X125971726Y-55862520D01*
X131178095Y-55862520D02*
X131743780Y-55862520D01*
X120200000Y-46000000D02*
X121000000Y-46000000D01*
X123950002Y-50634315D02*
X123950002Y-51200000D01*
X121000000Y-46000000D02*
X123950002Y-48950002D01*
X123950002Y-48950002D02*
X123950002Y-50634315D01*
X125392000Y-48906294D02*
X125392000Y-50957015D01*
X125392000Y-50957015D02*
X125392000Y-51522700D01*
X121285706Y-44800000D02*
X125392000Y-48906294D01*
X120200000Y-44800000D02*
X121285706Y-44800000D01*
X118426790Y-49600000D02*
X118384100Y-49642690D01*
X120200000Y-49600000D02*
X118426790Y-49600000D01*
X120200000Y-48400000D02*
X118649700Y-48400000D01*
X118390100Y-48385700D02*
X118635400Y-48385700D01*
X118635400Y-48385700D02*
X118649700Y-48400000D01*
D20*
X127200000Y-49600000D02*
X126500000Y-48900000D01*
X131500000Y-49600000D02*
X127200000Y-49600000D01*
X128800000Y-50800000D02*
X131500000Y-50800000D01*
D21*
G36*
X133498094Y-49795226D02*
G01*
X133698053Y-49835000D01*
X133901931Y-49835000D01*
X133965001Y-49822455D01*
X133965000Y-56684230D01*
X133849482Y-56649188D01*
X133725000Y-56636928D01*
X133485750Y-56640000D01*
X133327000Y-56798750D01*
X133327000Y-57473000D01*
X133347000Y-57473000D01*
X133347000Y-57727000D01*
X133327000Y-57727000D01*
X133327000Y-58401250D01*
X133485750Y-58560000D01*
X133725000Y-58563072D01*
X133849482Y-58550812D01*
X133965000Y-58515770D01*
X133965000Y-58750142D01*
X133900483Y-58814659D01*
X133849482Y-58799188D01*
X133725000Y-58786928D01*
X132675000Y-58786928D01*
X132550518Y-58799188D01*
X132430820Y-58835498D01*
X132320506Y-58894463D01*
X132234556Y-58965000D01*
X130015444Y-58965000D01*
X129929494Y-58894463D01*
X129819180Y-58835498D01*
X129699482Y-58799188D01*
X129575000Y-58786928D01*
X128525000Y-58786928D01*
X128400518Y-58799188D01*
X128280820Y-58835498D01*
X128170506Y-58894463D01*
X128073815Y-58973815D01*
X127994463Y-59070506D01*
X127935498Y-59180820D01*
X127899188Y-59300518D01*
X127886928Y-59425000D01*
X127886928Y-60075000D01*
X127899188Y-60199482D01*
X127935498Y-60319180D01*
X127994463Y-60429494D01*
X128002839Y-60439700D01*
X126013856Y-60439700D01*
X125975300Y-60435903D01*
X125936744Y-60439700D01*
X125936739Y-60439700D01*
X125896326Y-60443680D01*
X125821413Y-60451058D01*
X125673440Y-60495946D01*
X125537067Y-60568838D01*
X125417536Y-60666936D01*
X125392953Y-60696890D01*
X125074193Y-61015650D01*
X124973860Y-60985214D01*
X124700000Y-60958241D01*
X124426141Y-60985214D01*
X124162806Y-61065096D01*
X123920114Y-61194817D01*
X123707393Y-61369392D01*
X123694039Y-61385663D01*
X123530330Y-61237865D01*
X123295068Y-61097476D01*
X123043070Y-61007780D01*
X122827000Y-61130280D01*
X122827000Y-62373000D01*
X122847000Y-62373000D01*
X122847000Y-62627000D01*
X122827000Y-62627000D01*
X122827000Y-62647000D01*
X122573000Y-62647000D01*
X122573000Y-62627000D01*
X122553000Y-62627000D01*
X122553000Y-62373000D01*
X122573000Y-62373000D01*
X122573000Y-61130280D01*
X122356930Y-61007780D01*
X122104932Y-61097476D01*
X121869670Y-61237865D01*
X121666317Y-61421454D01*
X121587588Y-61527177D01*
X121501474Y-61441063D01*
X121331956Y-61327795D01*
X121143598Y-61249774D01*
X120943639Y-61210000D01*
X120739761Y-61210000D01*
X120539802Y-61249774D01*
X120414753Y-61301571D01*
X120324482Y-61274188D01*
X120200000Y-61261928D01*
X119100000Y-61261928D01*
X118975518Y-61274188D01*
X118855820Y-61310498D01*
X118800000Y-61340335D01*
X118744180Y-61310498D01*
X118693057Y-61294990D01*
X118678754Y-61247840D01*
X118670375Y-61232164D01*
X118605862Y-61111467D01*
X118507764Y-60991936D01*
X118477815Y-60967357D01*
X118323530Y-60813072D01*
X118475000Y-60813072D01*
X118599482Y-60800812D01*
X118719180Y-60764502D01*
X118829494Y-60705537D01*
X118915444Y-60635000D01*
X121134556Y-60635000D01*
X121220506Y-60705537D01*
X121330820Y-60764502D01*
X121450518Y-60800812D01*
X121575000Y-60813072D01*
X122625000Y-60813072D01*
X122749482Y-60800812D01*
X122869180Y-60764502D01*
X122979494Y-60705537D01*
X123076185Y-60626185D01*
X123155537Y-60529494D01*
X123214502Y-60419180D01*
X123250812Y-60299482D01*
X123263072Y-60175000D01*
X123263072Y-59525000D01*
X123250812Y-59400518D01*
X123214502Y-59280820D01*
X123155537Y-59170506D01*
X123076185Y-59073815D01*
X122979494Y-58994463D01*
X122869180Y-58935498D01*
X122749482Y-58899188D01*
X122625000Y-58886928D01*
X121575000Y-58886928D01*
X121450518Y-58899188D01*
X121330820Y-58935498D01*
X121220506Y-58994463D01*
X121134556Y-59065000D01*
X120760000Y-59065000D01*
X120760000Y-58287670D01*
X120763676Y-58250347D01*
X120760000Y-58213024D01*
X120760000Y-58213015D01*
X120749003Y-58101362D01*
X120725840Y-58025000D01*
X120936928Y-58025000D01*
X120949188Y-58149482D01*
X120985498Y-58269180D01*
X121044463Y-58379494D01*
X121123815Y-58476185D01*
X121220506Y-58555537D01*
X121330820Y-58614502D01*
X121450518Y-58650812D01*
X121575000Y-58663072D01*
X121814250Y-58660000D01*
X121973000Y-58501250D01*
X121973000Y-57827000D01*
X121098750Y-57827000D01*
X120940000Y-57985750D01*
X120936928Y-58025000D01*
X120725840Y-58025000D01*
X120705546Y-57958101D01*
X120634974Y-57826072D01*
X120540001Y-57710347D01*
X120511004Y-57686550D01*
X119902437Y-57077983D01*
X119924482Y-57075812D01*
X120044180Y-57039502D01*
X120100000Y-57009665D01*
X120155820Y-57039502D01*
X120275518Y-57075812D01*
X120400000Y-57088072D01*
X121008348Y-57088072D01*
X120985498Y-57130820D01*
X120949188Y-57250518D01*
X120936928Y-57375000D01*
X120940000Y-57414250D01*
X121098750Y-57573000D01*
X121973000Y-57573000D01*
X121973000Y-57553000D01*
X122227000Y-57553000D01*
X122227000Y-57573000D01*
X122247000Y-57573000D01*
X122247000Y-57827000D01*
X122227000Y-57827000D01*
X122227000Y-58501250D01*
X122385750Y-58660000D01*
X122563878Y-58662287D01*
X122575763Y-58680074D01*
X122719926Y-58824237D01*
X122889444Y-58937505D01*
X123077802Y-59015526D01*
X123277761Y-59055300D01*
X123481639Y-59055300D01*
X123661928Y-59019439D01*
X123661928Y-59600000D01*
X123674188Y-59724482D01*
X123710498Y-59844180D01*
X123769463Y-59954494D01*
X123848815Y-60051185D01*
X123945506Y-60130537D01*
X124055820Y-60189502D01*
X124175518Y-60225812D01*
X124300000Y-60238072D01*
X125400000Y-60238072D01*
X125524482Y-60225812D01*
X125644180Y-60189502D01*
X125700000Y-60159665D01*
X125755820Y-60189502D01*
X125875518Y-60225812D01*
X126000000Y-60238072D01*
X126264250Y-60235000D01*
X126423000Y-60076250D01*
X126423000Y-59227000D01*
X126677000Y-59227000D01*
X126677000Y-60076250D01*
X126835750Y-60235000D01*
X127100000Y-60238072D01*
X127224482Y-60225812D01*
X127344180Y-60189502D01*
X127454494Y-60130537D01*
X127551185Y-60051185D01*
X127630537Y-59954494D01*
X127689502Y-59844180D01*
X127725812Y-59724482D01*
X127738072Y-59600000D01*
X127735000Y-59385750D01*
X127576250Y-59227000D01*
X126677000Y-59227000D01*
X126423000Y-59227000D01*
X126403000Y-59227000D01*
X126403000Y-58973000D01*
X126423000Y-58973000D01*
X126423000Y-58953000D01*
X126677000Y-58953000D01*
X126677000Y-58973000D01*
X127576250Y-58973000D01*
X127735000Y-58814250D01*
X127738072Y-58600000D01*
X127725812Y-58475518D01*
X127689502Y-58355820D01*
X127630537Y-58245506D01*
X127567603Y-58168821D01*
X127628807Y-58094244D01*
X127687772Y-57983930D01*
X127705648Y-57925000D01*
X127886928Y-57925000D01*
X127899188Y-58049482D01*
X127935498Y-58169180D01*
X127994463Y-58279494D01*
X128073815Y-58376185D01*
X128170506Y-58455537D01*
X128280820Y-58514502D01*
X128400518Y-58550812D01*
X128525000Y-58563072D01*
X128764250Y-58560000D01*
X128923000Y-58401250D01*
X128923000Y-57727000D01*
X129177000Y-57727000D01*
X129177000Y-58401250D01*
X129335750Y-58560000D01*
X129575000Y-58563072D01*
X129699482Y-58550812D01*
X129819180Y-58514502D01*
X129929494Y-58455537D01*
X130026185Y-58376185D01*
X130105537Y-58279494D01*
X130164502Y-58169180D01*
X130200812Y-58049482D01*
X130213072Y-57925000D01*
X132036928Y-57925000D01*
X132049188Y-58049482D01*
X132085498Y-58169180D01*
X132144463Y-58279494D01*
X132223815Y-58376185D01*
X132320506Y-58455537D01*
X132430820Y-58514502D01*
X132550518Y-58550812D01*
X132675000Y-58563072D01*
X132914250Y-58560000D01*
X133073000Y-58401250D01*
X133073000Y-57727000D01*
X132198750Y-57727000D01*
X132040000Y-57885750D01*
X132036928Y-57925000D01*
X130213072Y-57925000D01*
X130210000Y-57885750D01*
X130051250Y-57727000D01*
X129177000Y-57727000D01*
X128923000Y-57727000D01*
X128048750Y-57727000D01*
X127890000Y-57885750D01*
X127886928Y-57925000D01*
X127705648Y-57925000D01*
X127724082Y-57864232D01*
X127736342Y-57739750D01*
X127736342Y-56660250D01*
X127735088Y-56647520D01*
X128417454Y-56647520D01*
X128400518Y-56649188D01*
X128280820Y-56685498D01*
X128170506Y-56744463D01*
X128073815Y-56823815D01*
X127994463Y-56920506D01*
X127935498Y-57030820D01*
X127899188Y-57150518D01*
X127886928Y-57275000D01*
X127890000Y-57314250D01*
X128048750Y-57473000D01*
X128923000Y-57473000D01*
X128923000Y-57453000D01*
X129177000Y-57453000D01*
X129177000Y-57473000D01*
X130051250Y-57473000D01*
X130210000Y-57314250D01*
X130213072Y-57275000D01*
X132036928Y-57275000D01*
X132040000Y-57314250D01*
X132198750Y-57473000D01*
X133073000Y-57473000D01*
X133073000Y-56798750D01*
X132914250Y-56640000D01*
X132675000Y-56636928D01*
X132550518Y-56649188D01*
X132430820Y-56685498D01*
X132320506Y-56744463D01*
X132223815Y-56823815D01*
X132144463Y-56920506D01*
X132085498Y-57030820D01*
X132049188Y-57150518D01*
X132036928Y-57275000D01*
X130213072Y-57275000D01*
X130200812Y-57150518D01*
X130164502Y-57030820D01*
X130105537Y-56920506D01*
X130026185Y-56823815D01*
X129929494Y-56744463D01*
X129819180Y-56685498D01*
X129699482Y-56649188D01*
X129682546Y-56647520D01*
X131065069Y-56647520D01*
X131084006Y-56666457D01*
X131253524Y-56779725D01*
X131441882Y-56857746D01*
X131641841Y-56897520D01*
X131845719Y-56897520D01*
X132045678Y-56857746D01*
X132234036Y-56779725D01*
X132403554Y-56666457D01*
X132547717Y-56522294D01*
X132660985Y-56352776D01*
X132739006Y-56164418D01*
X132778780Y-55964459D01*
X132778780Y-55760581D01*
X132739006Y-55560622D01*
X132660985Y-55372264D01*
X132547717Y-55202746D01*
X132403554Y-55058583D01*
X132234036Y-54945315D01*
X132045678Y-54867294D01*
X131845719Y-54827520D01*
X131753080Y-54827520D01*
X131753080Y-54734881D01*
X131713306Y-54534922D01*
X131635285Y-54346564D01*
X131560741Y-54235000D01*
X132427000Y-54235000D01*
X132626478Y-54190336D01*
X132813410Y-54107614D01*
X132980612Y-53990013D01*
X133121658Y-53842052D01*
X133231128Y-53669418D01*
X133294666Y-53486123D01*
X133166998Y-53327000D01*
X131627000Y-53327000D01*
X131627000Y-53347000D01*
X131373000Y-53347000D01*
X131373000Y-53327000D01*
X131353000Y-53327000D01*
X131353000Y-53073000D01*
X131373000Y-53073000D01*
X131373000Y-53053000D01*
X131627000Y-53053000D01*
X131627000Y-53073000D01*
X133166998Y-53073000D01*
X133294666Y-52913877D01*
X133231128Y-52730582D01*
X133147534Y-52598755D01*
X133164734Y-52577797D01*
X133260841Y-52397993D01*
X133320024Y-52202895D01*
X133340007Y-52000000D01*
X133320024Y-51797105D01*
X133260841Y-51602007D01*
X133164734Y-51422203D01*
X133146512Y-51400000D01*
X133164734Y-51377797D01*
X133260841Y-51197993D01*
X133320024Y-51002895D01*
X133340007Y-50800000D01*
X133320024Y-50597105D01*
X133260841Y-50402007D01*
X133164734Y-50222203D01*
X133146512Y-50200000D01*
X133164734Y-50177797D01*
X133260841Y-49997993D01*
X133320024Y-49802895D01*
X133327729Y-49724658D01*
X133498094Y-49795226D01*
X133498094Y-49795226D01*
G37*
X133498094Y-49795226D02*
X133698053Y-49835000D01*
X133901931Y-49835000D01*
X133965001Y-49822455D01*
X133965000Y-56684230D01*
X133849482Y-56649188D01*
X133725000Y-56636928D01*
X133485750Y-56640000D01*
X133327000Y-56798750D01*
X133327000Y-57473000D01*
X133347000Y-57473000D01*
X133347000Y-57727000D01*
X133327000Y-57727000D01*
X133327000Y-58401250D01*
X133485750Y-58560000D01*
X133725000Y-58563072D01*
X133849482Y-58550812D01*
X133965000Y-58515770D01*
X133965000Y-58750142D01*
X133900483Y-58814659D01*
X133849482Y-58799188D01*
X133725000Y-58786928D01*
X132675000Y-58786928D01*
X132550518Y-58799188D01*
X132430820Y-58835498D01*
X132320506Y-58894463D01*
X132234556Y-58965000D01*
X130015444Y-58965000D01*
X129929494Y-58894463D01*
X129819180Y-58835498D01*
X129699482Y-58799188D01*
X129575000Y-58786928D01*
X128525000Y-58786928D01*
X128400518Y-58799188D01*
X128280820Y-58835498D01*
X128170506Y-58894463D01*
X128073815Y-58973815D01*
X127994463Y-59070506D01*
X127935498Y-59180820D01*
X127899188Y-59300518D01*
X127886928Y-59425000D01*
X127886928Y-60075000D01*
X127899188Y-60199482D01*
X127935498Y-60319180D01*
X127994463Y-60429494D01*
X128002839Y-60439700D01*
X126013856Y-60439700D01*
X125975300Y-60435903D01*
X125936744Y-60439700D01*
X125936739Y-60439700D01*
X125896326Y-60443680D01*
X125821413Y-60451058D01*
X125673440Y-60495946D01*
X125537067Y-60568838D01*
X125417536Y-60666936D01*
X125392953Y-60696890D01*
X125074193Y-61015650D01*
X124973860Y-60985214D01*
X124700000Y-60958241D01*
X124426141Y-60985214D01*
X124162806Y-61065096D01*
X123920114Y-61194817D01*
X123707393Y-61369392D01*
X123694039Y-61385663D01*
X123530330Y-61237865D01*
X123295068Y-61097476D01*
X123043070Y-61007780D01*
X122827000Y-61130280D01*
X122827000Y-62373000D01*
X122847000Y-62373000D01*
X122847000Y-62627000D01*
X122827000Y-62627000D01*
X122827000Y-62647000D01*
X122573000Y-62647000D01*
X122573000Y-62627000D01*
X122553000Y-62627000D01*
X122553000Y-62373000D01*
X122573000Y-62373000D01*
X122573000Y-61130280D01*
X122356930Y-61007780D01*
X122104932Y-61097476D01*
X121869670Y-61237865D01*
X121666317Y-61421454D01*
X121587588Y-61527177D01*
X121501474Y-61441063D01*
X121331956Y-61327795D01*
X121143598Y-61249774D01*
X120943639Y-61210000D01*
X120739761Y-61210000D01*
X120539802Y-61249774D01*
X120414753Y-61301571D01*
X120324482Y-61274188D01*
X120200000Y-61261928D01*
X119100000Y-61261928D01*
X118975518Y-61274188D01*
X118855820Y-61310498D01*
X118800000Y-61340335D01*
X118744180Y-61310498D01*
X118693057Y-61294990D01*
X118678754Y-61247840D01*
X118670375Y-61232164D01*
X118605862Y-61111467D01*
X118507764Y-60991936D01*
X118477815Y-60967357D01*
X118323530Y-60813072D01*
X118475000Y-60813072D01*
X118599482Y-60800812D01*
X118719180Y-60764502D01*
X118829494Y-60705537D01*
X118915444Y-60635000D01*
X121134556Y-60635000D01*
X121220506Y-60705537D01*
X121330820Y-60764502D01*
X121450518Y-60800812D01*
X121575000Y-60813072D01*
X122625000Y-60813072D01*
X122749482Y-60800812D01*
X122869180Y-60764502D01*
X122979494Y-60705537D01*
X123076185Y-60626185D01*
X123155537Y-60529494D01*
X123214502Y-60419180D01*
X123250812Y-60299482D01*
X123263072Y-60175000D01*
X123263072Y-59525000D01*
X123250812Y-59400518D01*
X123214502Y-59280820D01*
X123155537Y-59170506D01*
X123076185Y-59073815D01*
X122979494Y-58994463D01*
X122869180Y-58935498D01*
X122749482Y-58899188D01*
X122625000Y-58886928D01*
X121575000Y-58886928D01*
X121450518Y-58899188D01*
X121330820Y-58935498D01*
X121220506Y-58994463D01*
X121134556Y-59065000D01*
X120760000Y-59065000D01*
X120760000Y-58287670D01*
X120763676Y-58250347D01*
X120760000Y-58213024D01*
X120760000Y-58213015D01*
X120749003Y-58101362D01*
X120725840Y-58025000D01*
X120936928Y-58025000D01*
X120949188Y-58149482D01*
X120985498Y-58269180D01*
X121044463Y-58379494D01*
X121123815Y-58476185D01*
X121220506Y-58555537D01*
X121330820Y-58614502D01*
X121450518Y-58650812D01*
X121575000Y-58663072D01*
X121814250Y-58660000D01*
X121973000Y-58501250D01*
X121973000Y-57827000D01*
X121098750Y-57827000D01*
X120940000Y-57985750D01*
X120936928Y-58025000D01*
X120725840Y-58025000D01*
X120705546Y-57958101D01*
X120634974Y-57826072D01*
X120540001Y-57710347D01*
X120511004Y-57686550D01*
X119902437Y-57077983D01*
X119924482Y-57075812D01*
X120044180Y-57039502D01*
X120100000Y-57009665D01*
X120155820Y-57039502D01*
X120275518Y-57075812D01*
X120400000Y-57088072D01*
X121008348Y-57088072D01*
X120985498Y-57130820D01*
X120949188Y-57250518D01*
X120936928Y-57375000D01*
X120940000Y-57414250D01*
X121098750Y-57573000D01*
X121973000Y-57573000D01*
X121973000Y-57553000D01*
X122227000Y-57553000D01*
X122227000Y-57573000D01*
X122247000Y-57573000D01*
X122247000Y-57827000D01*
X122227000Y-57827000D01*
X122227000Y-58501250D01*
X122385750Y-58660000D01*
X122563878Y-58662287D01*
X122575763Y-58680074D01*
X122719926Y-58824237D01*
X122889444Y-58937505D01*
X123077802Y-59015526D01*
X123277761Y-59055300D01*
X123481639Y-59055300D01*
X123661928Y-59019439D01*
X123661928Y-59600000D01*
X123674188Y-59724482D01*
X123710498Y-59844180D01*
X123769463Y-59954494D01*
X123848815Y-60051185D01*
X123945506Y-60130537D01*
X124055820Y-60189502D01*
X124175518Y-60225812D01*
X124300000Y-60238072D01*
X125400000Y-60238072D01*
X125524482Y-60225812D01*
X125644180Y-60189502D01*
X125700000Y-60159665D01*
X125755820Y-60189502D01*
X125875518Y-60225812D01*
X126000000Y-60238072D01*
X126264250Y-60235000D01*
X126423000Y-60076250D01*
X126423000Y-59227000D01*
X126677000Y-59227000D01*
X126677000Y-60076250D01*
X126835750Y-60235000D01*
X127100000Y-60238072D01*
X127224482Y-60225812D01*
X127344180Y-60189502D01*
X127454494Y-60130537D01*
X127551185Y-60051185D01*
X127630537Y-59954494D01*
X127689502Y-59844180D01*
X127725812Y-59724482D01*
X127738072Y-59600000D01*
X127735000Y-59385750D01*
X127576250Y-59227000D01*
X126677000Y-59227000D01*
X126423000Y-59227000D01*
X126403000Y-59227000D01*
X126403000Y-58973000D01*
X126423000Y-58973000D01*
X126423000Y-58953000D01*
X126677000Y-58953000D01*
X126677000Y-58973000D01*
X127576250Y-58973000D01*
X127735000Y-58814250D01*
X127738072Y-58600000D01*
X127725812Y-58475518D01*
X127689502Y-58355820D01*
X127630537Y-58245506D01*
X127567603Y-58168821D01*
X127628807Y-58094244D01*
X127687772Y-57983930D01*
X127705648Y-57925000D01*
X127886928Y-57925000D01*
X127899188Y-58049482D01*
X127935498Y-58169180D01*
X127994463Y-58279494D01*
X128073815Y-58376185D01*
X128170506Y-58455537D01*
X128280820Y-58514502D01*
X128400518Y-58550812D01*
X128525000Y-58563072D01*
X128764250Y-58560000D01*
X128923000Y-58401250D01*
X128923000Y-57727000D01*
X129177000Y-57727000D01*
X129177000Y-58401250D01*
X129335750Y-58560000D01*
X129575000Y-58563072D01*
X129699482Y-58550812D01*
X129819180Y-58514502D01*
X129929494Y-58455537D01*
X130026185Y-58376185D01*
X130105537Y-58279494D01*
X130164502Y-58169180D01*
X130200812Y-58049482D01*
X130213072Y-57925000D01*
X132036928Y-57925000D01*
X132049188Y-58049482D01*
X132085498Y-58169180D01*
X132144463Y-58279494D01*
X132223815Y-58376185D01*
X132320506Y-58455537D01*
X132430820Y-58514502D01*
X132550518Y-58550812D01*
X132675000Y-58563072D01*
X132914250Y-58560000D01*
X133073000Y-58401250D01*
X133073000Y-57727000D01*
X132198750Y-57727000D01*
X132040000Y-57885750D01*
X132036928Y-57925000D01*
X130213072Y-57925000D01*
X130210000Y-57885750D01*
X130051250Y-57727000D01*
X129177000Y-57727000D01*
X128923000Y-57727000D01*
X128048750Y-57727000D01*
X127890000Y-57885750D01*
X127886928Y-57925000D01*
X127705648Y-57925000D01*
X127724082Y-57864232D01*
X127736342Y-57739750D01*
X127736342Y-56660250D01*
X127735088Y-56647520D01*
X128417454Y-56647520D01*
X128400518Y-56649188D01*
X128280820Y-56685498D01*
X128170506Y-56744463D01*
X128073815Y-56823815D01*
X127994463Y-56920506D01*
X127935498Y-57030820D01*
X127899188Y-57150518D01*
X127886928Y-57275000D01*
X127890000Y-57314250D01*
X128048750Y-57473000D01*
X128923000Y-57473000D01*
X128923000Y-57453000D01*
X129177000Y-57453000D01*
X129177000Y-57473000D01*
X130051250Y-57473000D01*
X130210000Y-57314250D01*
X130213072Y-57275000D01*
X132036928Y-57275000D01*
X132040000Y-57314250D01*
X132198750Y-57473000D01*
X133073000Y-57473000D01*
X133073000Y-56798750D01*
X132914250Y-56640000D01*
X132675000Y-56636928D01*
X132550518Y-56649188D01*
X132430820Y-56685498D01*
X132320506Y-56744463D01*
X132223815Y-56823815D01*
X132144463Y-56920506D01*
X132085498Y-57030820D01*
X132049188Y-57150518D01*
X132036928Y-57275000D01*
X130213072Y-57275000D01*
X130200812Y-57150518D01*
X130164502Y-57030820D01*
X130105537Y-56920506D01*
X130026185Y-56823815D01*
X129929494Y-56744463D01*
X129819180Y-56685498D01*
X129699482Y-56649188D01*
X129682546Y-56647520D01*
X131065069Y-56647520D01*
X131084006Y-56666457D01*
X131253524Y-56779725D01*
X131441882Y-56857746D01*
X131641841Y-56897520D01*
X131845719Y-56897520D01*
X132045678Y-56857746D01*
X132234036Y-56779725D01*
X132403554Y-56666457D01*
X132547717Y-56522294D01*
X132660985Y-56352776D01*
X132739006Y-56164418D01*
X132778780Y-55964459D01*
X132778780Y-55760581D01*
X132739006Y-55560622D01*
X132660985Y-55372264D01*
X132547717Y-55202746D01*
X132403554Y-55058583D01*
X132234036Y-54945315D01*
X132045678Y-54867294D01*
X131845719Y-54827520D01*
X131753080Y-54827520D01*
X131753080Y-54734881D01*
X131713306Y-54534922D01*
X131635285Y-54346564D01*
X131560741Y-54235000D01*
X132427000Y-54235000D01*
X132626478Y-54190336D01*
X132813410Y-54107614D01*
X132980612Y-53990013D01*
X133121658Y-53842052D01*
X133231128Y-53669418D01*
X133294666Y-53486123D01*
X133166998Y-53327000D01*
X131627000Y-53327000D01*
X131627000Y-53347000D01*
X131373000Y-53347000D01*
X131373000Y-53327000D01*
X131353000Y-53327000D01*
X131353000Y-53073000D01*
X131373000Y-53073000D01*
X131373000Y-53053000D01*
X131627000Y-53053000D01*
X131627000Y-53073000D01*
X133166998Y-53073000D01*
X133294666Y-52913877D01*
X133231128Y-52730582D01*
X133147534Y-52598755D01*
X133164734Y-52577797D01*
X133260841Y-52397993D01*
X133320024Y-52202895D01*
X133340007Y-52000000D01*
X133320024Y-51797105D01*
X133260841Y-51602007D01*
X133164734Y-51422203D01*
X133146512Y-51400000D01*
X133164734Y-51377797D01*
X133260841Y-51197993D01*
X133320024Y-51002895D01*
X133340007Y-50800000D01*
X133320024Y-50597105D01*
X133260841Y-50402007D01*
X133164734Y-50222203D01*
X133146512Y-50200000D01*
X133164734Y-50177797D01*
X133260841Y-49997993D01*
X133320024Y-49802895D01*
X133327729Y-49724658D01*
X133498094Y-49795226D01*
G36*
X117930714Y-57639964D02*
G01*
X118062743Y-57710536D01*
X118097000Y-57720928D01*
X118097000Y-57827000D01*
X118077000Y-57827000D01*
X118077000Y-58501250D01*
X118235750Y-58660000D01*
X118475000Y-58663072D01*
X118599482Y-58650812D01*
X118719180Y-58614502D01*
X118829494Y-58555537D01*
X118926185Y-58476185D01*
X119005537Y-58379494D01*
X119022538Y-58347688D01*
X119240000Y-58565150D01*
X119240001Y-59065000D01*
X118915444Y-59065000D01*
X118829494Y-58994463D01*
X118719180Y-58935498D01*
X118599482Y-58899188D01*
X118475000Y-58886928D01*
X117591365Y-58886928D01*
X117628754Y-58816977D01*
X117635742Y-58793941D01*
X117673642Y-58669004D01*
X117675652Y-58648598D01*
X117823000Y-58501250D01*
X117823000Y-57827000D01*
X117803000Y-57827000D01*
X117803000Y-57573000D01*
X117823000Y-57573000D01*
X117823000Y-57553000D01*
X117824749Y-57553000D01*
X117930714Y-57639964D01*
X117930714Y-57639964D01*
G37*
X117930714Y-57639964D02*
X118062743Y-57710536D01*
X118097000Y-57720928D01*
X118097000Y-57827000D01*
X118077000Y-57827000D01*
X118077000Y-58501250D01*
X118235750Y-58660000D01*
X118475000Y-58663072D01*
X118599482Y-58650812D01*
X118719180Y-58614502D01*
X118829494Y-58555537D01*
X118926185Y-58476185D01*
X119005537Y-58379494D01*
X119022538Y-58347688D01*
X119240000Y-58565150D01*
X119240001Y-59065000D01*
X118915444Y-59065000D01*
X118829494Y-58994463D01*
X118719180Y-58935498D01*
X118599482Y-58899188D01*
X118475000Y-58886928D01*
X117591365Y-58886928D01*
X117628754Y-58816977D01*
X117635742Y-58793941D01*
X117673642Y-58669004D01*
X117675652Y-58648598D01*
X117823000Y-58501250D01*
X117823000Y-57827000D01*
X117803000Y-57827000D01*
X117803000Y-57573000D01*
X117823000Y-57573000D01*
X117823000Y-57553000D01*
X117824749Y-57553000D01*
X117930714Y-57639964D01*
G36*
X119377000Y-55823000D02*
G01*
X119397000Y-55823000D01*
X119397000Y-56077000D01*
X119377000Y-56077000D01*
X119377000Y-56097000D01*
X119123000Y-56097000D01*
X119123000Y-56077000D01*
X119103000Y-56077000D01*
X119103000Y-55823000D01*
X119123000Y-55823000D01*
X119123000Y-55803000D01*
X119377000Y-55803000D01*
X119377000Y-55823000D01*
X119377000Y-55823000D01*
G37*
X119377000Y-55823000D02*
X119397000Y-55823000D01*
X119397000Y-56077000D01*
X119377000Y-56077000D01*
X119377000Y-56097000D01*
X119123000Y-56097000D01*
X119123000Y-56077000D01*
X119103000Y-56077000D01*
X119103000Y-55823000D01*
X119123000Y-55823000D01*
X119123000Y-55803000D01*
X119377000Y-55803000D01*
X119377000Y-55823000D01*
G36*
X118405334Y-52913877D02*
G01*
X118533002Y-53073000D01*
X120073000Y-53073000D01*
X120073000Y-53053000D01*
X120327000Y-53053000D01*
X120327000Y-53073000D01*
X120347000Y-53073000D01*
X120347000Y-53327000D01*
X120327000Y-53327000D01*
X120327000Y-54235000D01*
X121127000Y-54235000D01*
X121221212Y-54213905D01*
X121229977Y-54302895D01*
X121289160Y-54497993D01*
X121359867Y-54630276D01*
X121323485Y-54666658D01*
X121293537Y-54691236D01*
X121268959Y-54721184D01*
X121268955Y-54721188D01*
X121257718Y-54734881D01*
X121195439Y-54810767D01*
X121194818Y-54811928D01*
X120400000Y-54811928D01*
X120275518Y-54824188D01*
X120155820Y-54860498D01*
X120100000Y-54890335D01*
X120054410Y-54865966D01*
X120086400Y-54705139D01*
X120086400Y-54501261D01*
X120046626Y-54301302D01*
X120019163Y-54235000D01*
X120073000Y-54235000D01*
X120073000Y-53327000D01*
X118533002Y-53327000D01*
X118405334Y-53486123D01*
X118468872Y-53669418D01*
X118503716Y-53724367D01*
X118391626Y-53799263D01*
X118347689Y-53843200D01*
X118284123Y-53843200D01*
X118246800Y-53839524D01*
X118209477Y-53843200D01*
X118209467Y-53843200D01*
X118097814Y-53854197D01*
X117954553Y-53897654D01*
X117822524Y-53968226D01*
X117706799Y-54063199D01*
X117685000Y-54089761D01*
X117685000Y-53628872D01*
X118408166Y-52905706D01*
X118405334Y-52913877D01*
X118405334Y-52913877D01*
G37*
X118405334Y-52913877D02*
X118533002Y-53073000D01*
X120073000Y-53073000D01*
X120073000Y-53053000D01*
X120327000Y-53053000D01*
X120327000Y-53073000D01*
X120347000Y-53073000D01*
X120347000Y-53327000D01*
X120327000Y-53327000D01*
X120327000Y-54235000D01*
X121127000Y-54235000D01*
X121221212Y-54213905D01*
X121229977Y-54302895D01*
X121289160Y-54497993D01*
X121359867Y-54630276D01*
X121323485Y-54666658D01*
X121293537Y-54691236D01*
X121268959Y-54721184D01*
X121268955Y-54721188D01*
X121257718Y-54734881D01*
X121195439Y-54810767D01*
X121194818Y-54811928D01*
X120400000Y-54811928D01*
X120275518Y-54824188D01*
X120155820Y-54860498D01*
X120100000Y-54890335D01*
X120054410Y-54865966D01*
X120086400Y-54705139D01*
X120086400Y-54501261D01*
X120046626Y-54301302D01*
X120019163Y-54235000D01*
X120073000Y-54235000D01*
X120073000Y-53327000D01*
X118533002Y-53327000D01*
X118405334Y-53486123D01*
X118468872Y-53669418D01*
X118503716Y-53724367D01*
X118391626Y-53799263D01*
X118347689Y-53843200D01*
X118284123Y-53843200D01*
X118246800Y-53839524D01*
X118209477Y-53843200D01*
X118209467Y-53843200D01*
X118097814Y-53854197D01*
X117954553Y-53897654D01*
X117822524Y-53968226D01*
X117706799Y-54063199D01*
X117685000Y-54089761D01*
X117685000Y-53628872D01*
X118408166Y-52905706D01*
X118405334Y-52913877D01*
M02*
