M48
; DRILL file {KiCad (5.1.2)-1} date 2022/10/09 20:42:30
; FORMAT={-:-/ absolute / metric / decimal}
; #@! TF.CreationDate,2022-10-09T20:42:30+09:00
; #@! TF.GenerationSoftware,Kicad,Pcbnew,(5.1.2)-1
FMAT,2
METRIC
T1C0.400
T2C0.500
T3C0.762
T4C1.016
%
G90
G05
T1
X116.75Y-51.15
X118.2Y-53.65
X118.384Y-49.643
X118.39Y-48.386
X119.051Y-54.603
X120.842Y-62.245
X122.25Y-50.163
X123.38Y-58.02
X123.4Y-55.45
X123.95Y-51.2
X125.392Y-51.523
X127.35Y-50.95
X129.15Y-46.095
X130.718Y-54.837
X131.744Y-55.863
X133.8Y-48.8
T2
X114.6Y-41.2
X128.8Y-50.8
X117.25Y-41.2
X126.5Y-48.9
T3
X122.7Y-62.5
X124.7Y-62.5
X126.7Y-62.5
X128.7Y-62.5
T4
X137.05Y-44.45
X137.05Y-46.99
X137.05Y-49.53
X137.05Y-52.07
X137.05Y-54.61
X137.05Y-57.15
X137.05Y-59.69
X137.05Y-62.23
X114.3Y-44.45
X114.3Y-46.99
X114.3Y-49.53
X114.3Y-52.07
X114.3Y-54.61
X114.3Y-57.15
X114.3Y-59.69
X114.3Y-62.23
T0
M30
