G04 #@! TF.GenerationSoftware,KiCad,Pcbnew,(5.1.2)-1*
G04 #@! TF.CreationDate,2022-10-09T20:42:29+09:00*
G04 #@! TF.ProjectId,ble5,626c6535-2e6b-4696-9361-645f70636258,v2.1*
G04 #@! TF.SameCoordinates,Original*
G04 #@! TF.FileFunction,Copper,L2,Bot*
G04 #@! TF.FilePolarity,Positive*
%FSLAX46Y46*%
G04 Gerber Fmt 4.6, Leading zero omitted, Abs format (unit mm)*
G04 Created by KiCad (PCBNEW (5.1.2)-1) date 2022-10-09 20:42:29*
%MOMM*%
%LPD*%
G04 APERTURE LIST*
%ADD10R,1.000000X1.000000*%
%ADD11O,3.048000X1.524000*%
%ADD12O,1.524000X1.800000*%
%ADD13C,0.800000*%
%ADD14C,0.300000*%
%ADD15C,0.250000*%
%ADD16C,0.254000*%
G04 APERTURE END LIST*
D10*
X128800000Y-50800000D03*
X126500000Y-48900000D03*
X117250000Y-41200000D03*
X114600000Y-41200000D03*
D11*
X114300000Y-44450000D03*
X114300000Y-46990000D03*
X114300000Y-49530000D03*
X114300000Y-52070000D03*
X114300000Y-54610000D03*
X114300000Y-57150000D03*
X114300000Y-59690000D03*
X114300000Y-62230000D03*
X137050000Y-44450000D03*
X137050000Y-46990000D03*
X137050000Y-49530000D03*
X137050000Y-52070000D03*
X137050000Y-54610000D03*
X137050000Y-57150000D03*
X137050000Y-59690000D03*
X137050000Y-62230000D03*
D12*
X128700000Y-62500000D03*
X126700000Y-62500000D03*
X124700000Y-62500000D03*
X122700000Y-62500000D03*
D13*
X129150000Y-46095000D03*
X118199850Y-53649850D03*
X122250000Y-50162800D03*
X120841700Y-62245000D03*
X123379700Y-58020300D03*
X116750000Y-51150000D03*
X123400000Y-55450000D03*
X119051400Y-54603200D03*
X133799992Y-48800000D03*
X127350000Y-50950000D03*
X130718080Y-54836820D03*
X131743780Y-55862520D03*
X123950002Y-51200000D03*
X125392000Y-51522700D03*
X118384100Y-49642690D03*
X118390100Y-48385700D03*
D14*
X118034000Y-50412700D02*
X118366200Y-50412700D01*
X116350000Y-48728700D02*
X118034000Y-50412700D01*
X115062000Y-44450000D02*
X116350000Y-45738000D01*
X116350000Y-45738000D02*
X116350000Y-48728700D01*
X114300000Y-44450000D02*
X115062000Y-44450000D01*
X118199850Y-53084165D02*
X118199850Y-53649850D01*
X118199850Y-50579050D02*
X118199850Y-53084165D01*
X118366200Y-50412700D02*
X118199850Y-50579050D01*
X128584315Y-46095000D02*
X129150000Y-46095000D01*
X124655000Y-46095000D02*
X128584315Y-46095000D01*
X118366200Y-50412700D02*
X120337300Y-50412700D01*
X120337300Y-50412700D02*
X124655000Y-46095000D01*
X124700000Y-62500000D02*
X123449600Y-61249600D01*
X123449600Y-61249600D02*
X123379700Y-61249600D01*
X122086700Y-61000000D02*
X120841700Y-62245000D01*
X123379700Y-61249600D02*
X123130100Y-61000000D01*
X123130100Y-61000000D02*
X122086700Y-61000000D01*
X123379700Y-61249600D02*
X123379700Y-58020300D01*
X125132811Y-47279989D02*
X122649999Y-49762801D01*
X135279691Y-44450000D02*
X132449702Y-47279989D01*
X137160000Y-44450000D02*
X135279691Y-44450000D01*
X122649999Y-49762801D02*
X122250000Y-50162800D01*
X132449702Y-47279989D02*
X125132811Y-47279989D01*
X128700000Y-60438600D02*
X128700000Y-62500000D01*
D15*
X116750000Y-52922000D02*
X116750000Y-51150000D01*
X114300000Y-54610000D02*
X115062000Y-54610000D01*
X115062000Y-54610000D02*
X116750000Y-52922000D01*
X128700000Y-60438600D02*
X128700000Y-57000000D01*
X128700000Y-57000000D02*
X126653100Y-54953100D01*
X122736600Y-53250000D02*
X120618300Y-55368300D01*
X124950000Y-53250000D02*
X122736600Y-53250000D01*
X126653100Y-54953100D02*
X124950000Y-53250000D01*
D14*
X120186600Y-55800000D02*
X120618300Y-55368300D01*
X117364300Y-55800000D02*
X120186600Y-55800000D01*
X114300000Y-54610000D02*
X116174300Y-54610000D01*
X116174300Y-54610000D02*
X117364300Y-55800000D01*
X116174300Y-57150000D02*
X116674500Y-56649800D01*
X116674500Y-56649800D02*
X116674500Y-56649700D01*
X126699900Y-61249700D02*
X126700000Y-61249700D01*
X126700000Y-62500000D02*
X126700000Y-61249700D01*
X114300000Y-57150000D02*
X116174300Y-57150000D01*
D15*
X126699900Y-56399900D02*
X126699900Y-59599900D01*
X125785500Y-55485500D02*
X126699900Y-56399900D01*
D14*
X126699900Y-59599900D02*
X126699900Y-61249700D01*
D15*
X122600000Y-54200000D02*
X120150300Y-56649700D01*
X124500000Y-54200000D02*
X122600000Y-54200000D01*
X125785500Y-55485500D02*
X124500000Y-54200000D01*
D14*
X116674500Y-56649700D02*
X120150300Y-56649700D01*
X123000001Y-55849999D02*
X123400000Y-55450000D01*
X119160000Y-59690000D02*
X123000001Y-55849999D01*
X114300000Y-59690000D02*
X119160000Y-59690000D01*
X134529992Y-49530000D02*
X134199991Y-49199999D01*
X137160000Y-49530000D02*
X134529992Y-49530000D01*
X134199991Y-49199999D02*
X133799992Y-48800000D01*
X132234307Y-47800000D02*
X133234307Y-48800000D01*
X125854600Y-47800000D02*
X132234307Y-47800000D01*
X133234307Y-48800000D02*
X133799992Y-48800000D01*
X119051400Y-54603200D02*
X125854600Y-47800000D01*
X127749999Y-51349999D02*
X127350000Y-50950000D01*
X128470000Y-52070000D02*
X127749999Y-51349999D01*
X137160000Y-52070000D02*
X128470000Y-52070000D01*
X130944900Y-54610000D02*
X130718080Y-54836820D01*
X137160000Y-54610000D02*
X130944900Y-54610000D01*
X137160000Y-57150000D02*
X133031260Y-57150000D01*
X132143779Y-56262519D02*
X131743780Y-55862520D01*
X133031260Y-57150000D02*
X132143779Y-56262519D01*
X125755301Y-50750001D02*
X124400001Y-50750001D01*
X124400001Y-50750001D02*
X124350001Y-50800001D01*
X126763800Y-51758500D02*
X125755301Y-50750001D01*
X124350001Y-50800001D02*
X123950002Y-51200000D01*
X126763800Y-51971500D02*
X126763800Y-51758500D01*
X134482300Y-59690000D02*
X126763800Y-51971500D01*
X137160000Y-59690000D02*
X134482300Y-59690000D01*
X125392000Y-51522700D02*
X125392000Y-52336300D01*
X125392000Y-52336300D02*
X135285700Y-62230000D01*
X137160000Y-62230000D02*
X135285700Y-62230000D01*
X116870011Y-44270011D02*
X116870011Y-48128601D01*
X116870011Y-48128601D02*
X117984101Y-49242691D01*
X114600000Y-41200000D02*
X114600000Y-42000000D01*
X114600000Y-42000000D02*
X116870011Y-44270011D01*
X117984101Y-49242691D02*
X118384100Y-49642690D01*
X117250000Y-41200000D02*
X117250000Y-42050300D01*
X117250000Y-42050300D02*
X118390100Y-43190400D01*
X118390100Y-43190400D02*
X118390100Y-48385700D01*
D16*
G36*
X122827000Y-62373000D02*
G01*
X122847000Y-62373000D01*
X122847000Y-62627000D01*
X122827000Y-62627000D01*
X122827000Y-62647000D01*
X122573000Y-62647000D01*
X122573000Y-62627000D01*
X122553000Y-62627000D01*
X122553000Y-62373000D01*
X122573000Y-62373000D01*
X122573000Y-62353000D01*
X122827000Y-62353000D01*
X122827000Y-62373000D01*
X122827000Y-62373000D01*
G37*
X122827000Y-62373000D02*
X122847000Y-62373000D01*
X122847000Y-62627000D01*
X122827000Y-62627000D01*
X122827000Y-62647000D01*
X122573000Y-62647000D01*
X122573000Y-62627000D01*
X122553000Y-62627000D01*
X122553000Y-62373000D01*
X122573000Y-62373000D01*
X122573000Y-62353000D01*
X122827000Y-62353000D01*
X122827000Y-62373000D01*
G36*
X132124545Y-46494989D02*
G01*
X125171363Y-46494989D01*
X125132810Y-46491192D01*
X125094257Y-46494989D01*
X125094250Y-46494989D01*
X124993301Y-46504932D01*
X124978923Y-46506348D01*
X124944483Y-46516795D01*
X124830951Y-46551235D01*
X124694578Y-46624127D01*
X124634370Y-46673539D01*
X124604998Y-46697644D01*
X124604995Y-46697647D01*
X124575047Y-46722225D01*
X124550469Y-46752173D01*
X122174843Y-49127800D01*
X122148061Y-49127800D01*
X121948102Y-49167574D01*
X121759744Y-49245595D01*
X121590226Y-49358863D01*
X121446063Y-49503026D01*
X121332795Y-49672544D01*
X121254774Y-49860902D01*
X121215000Y-50060861D01*
X121215000Y-50264739D01*
X121254774Y-50464698D01*
X121332795Y-50653056D01*
X121446063Y-50822574D01*
X121583966Y-50960477D01*
X118976243Y-53568200D01*
X118949461Y-53568200D01*
X118749502Y-53607974D01*
X118561144Y-53685995D01*
X118391626Y-53799263D01*
X118247463Y-53943426D01*
X118134195Y-54112944D01*
X118056174Y-54301302D01*
X118016400Y-54501261D01*
X118016400Y-54705139D01*
X118056174Y-54905098D01*
X118101697Y-55015000D01*
X117689458Y-55015000D01*
X116756647Y-54082190D01*
X116732064Y-54052236D01*
X116711469Y-54035334D01*
X117261009Y-53485794D01*
X117290001Y-53462001D01*
X117313795Y-53433008D01*
X117313799Y-53433004D01*
X117384973Y-53346277D01*
X117384974Y-53346276D01*
X117455546Y-53214247D01*
X117499003Y-53070986D01*
X117510000Y-52959333D01*
X117510000Y-52959324D01*
X117513676Y-52922001D01*
X117510000Y-52884678D01*
X117510000Y-51853711D01*
X117553937Y-51809774D01*
X117667205Y-51640256D01*
X117745226Y-51451898D01*
X117785000Y-51251939D01*
X117785000Y-51048061D01*
X117745226Y-50848102D01*
X117667205Y-50659744D01*
X117553937Y-50490226D01*
X117409774Y-50346063D01*
X117240256Y-50232795D01*
X117051898Y-50154774D01*
X116851939Y-50115000D01*
X116648061Y-50115000D01*
X116448102Y-50154774D01*
X116273416Y-50227132D01*
X116358904Y-50067195D01*
X116438786Y-49803860D01*
X116465759Y-49530000D01*
X116438786Y-49256140D01*
X116358904Y-48992805D01*
X116229183Y-48750113D01*
X116054608Y-48537392D01*
X115841887Y-48362817D01*
X115649529Y-48260000D01*
X115841887Y-48157183D01*
X116054608Y-47982608D01*
X116085012Y-47945561D01*
X116085012Y-48090038D01*
X116081214Y-48128601D01*
X116096370Y-48282487D01*
X116141257Y-48430460D01*
X116141258Y-48430461D01*
X116214150Y-48566834D01*
X116229059Y-48585000D01*
X116287666Y-48656413D01*
X116287670Y-48656417D01*
X116312248Y-48686365D01*
X116342196Y-48710943D01*
X117349100Y-49717848D01*
X117349100Y-49744629D01*
X117388874Y-49944588D01*
X117466895Y-50132946D01*
X117580163Y-50302464D01*
X117724326Y-50446627D01*
X117893844Y-50559895D01*
X118082202Y-50637916D01*
X118282161Y-50677690D01*
X118486039Y-50677690D01*
X118685998Y-50637916D01*
X118874356Y-50559895D01*
X119043874Y-50446627D01*
X119188037Y-50302464D01*
X119301305Y-50132946D01*
X119379326Y-49944588D01*
X119419100Y-49744629D01*
X119419100Y-49540751D01*
X119379326Y-49340792D01*
X119301305Y-49152434D01*
X119211937Y-49018685D01*
X119307305Y-48875956D01*
X119385326Y-48687598D01*
X119425100Y-48487639D01*
X119425100Y-48283761D01*
X119385326Y-48083802D01*
X119307305Y-47895444D01*
X119194037Y-47725926D01*
X119175100Y-47706989D01*
X119175100Y-46127000D01*
X132492534Y-46127000D01*
X132124545Y-46494989D01*
X132124545Y-46494989D01*
G37*
X132124545Y-46494989D02*
X125171363Y-46494989D01*
X125132810Y-46491192D01*
X125094257Y-46494989D01*
X125094250Y-46494989D01*
X124993301Y-46504932D01*
X124978923Y-46506348D01*
X124944483Y-46516795D01*
X124830951Y-46551235D01*
X124694578Y-46624127D01*
X124634370Y-46673539D01*
X124604998Y-46697644D01*
X124604995Y-46697647D01*
X124575047Y-46722225D01*
X124550469Y-46752173D01*
X122174843Y-49127800D01*
X122148061Y-49127800D01*
X121948102Y-49167574D01*
X121759744Y-49245595D01*
X121590226Y-49358863D01*
X121446063Y-49503026D01*
X121332795Y-49672544D01*
X121254774Y-49860902D01*
X121215000Y-50060861D01*
X121215000Y-50264739D01*
X121254774Y-50464698D01*
X121332795Y-50653056D01*
X121446063Y-50822574D01*
X121583966Y-50960477D01*
X118976243Y-53568200D01*
X118949461Y-53568200D01*
X118749502Y-53607974D01*
X118561144Y-53685995D01*
X118391626Y-53799263D01*
X118247463Y-53943426D01*
X118134195Y-54112944D01*
X118056174Y-54301302D01*
X118016400Y-54501261D01*
X118016400Y-54705139D01*
X118056174Y-54905098D01*
X118101697Y-55015000D01*
X117689458Y-55015000D01*
X116756647Y-54082190D01*
X116732064Y-54052236D01*
X116711469Y-54035334D01*
X117261009Y-53485794D01*
X117290001Y-53462001D01*
X117313795Y-53433008D01*
X117313799Y-53433004D01*
X117384973Y-53346277D01*
X117384974Y-53346276D01*
X117455546Y-53214247D01*
X117499003Y-53070986D01*
X117510000Y-52959333D01*
X117510000Y-52959324D01*
X117513676Y-52922001D01*
X117510000Y-52884678D01*
X117510000Y-51853711D01*
X117553937Y-51809774D01*
X117667205Y-51640256D01*
X117745226Y-51451898D01*
X117785000Y-51251939D01*
X117785000Y-51048061D01*
X117745226Y-50848102D01*
X117667205Y-50659744D01*
X117553937Y-50490226D01*
X117409774Y-50346063D01*
X117240256Y-50232795D01*
X117051898Y-50154774D01*
X116851939Y-50115000D01*
X116648061Y-50115000D01*
X116448102Y-50154774D01*
X116273416Y-50227132D01*
X116358904Y-50067195D01*
X116438786Y-49803860D01*
X116465759Y-49530000D01*
X116438786Y-49256140D01*
X116358904Y-48992805D01*
X116229183Y-48750113D01*
X116054608Y-48537392D01*
X115841887Y-48362817D01*
X115649529Y-48260000D01*
X115841887Y-48157183D01*
X116054608Y-47982608D01*
X116085012Y-47945561D01*
X116085012Y-48090038D01*
X116081214Y-48128601D01*
X116096370Y-48282487D01*
X116141257Y-48430460D01*
X116141258Y-48430461D01*
X116214150Y-48566834D01*
X116229059Y-48585000D01*
X116287666Y-48656413D01*
X116287670Y-48656417D01*
X116312248Y-48686365D01*
X116342196Y-48710943D01*
X117349100Y-49717848D01*
X117349100Y-49744629D01*
X117388874Y-49944588D01*
X117466895Y-50132946D01*
X117580163Y-50302464D01*
X117724326Y-50446627D01*
X117893844Y-50559895D01*
X118082202Y-50637916D01*
X118282161Y-50677690D01*
X118486039Y-50677690D01*
X118685998Y-50637916D01*
X118874356Y-50559895D01*
X119043874Y-50446627D01*
X119188037Y-50302464D01*
X119301305Y-50132946D01*
X119379326Y-49944588D01*
X119419100Y-49744629D01*
X119419100Y-49540751D01*
X119379326Y-49340792D01*
X119301305Y-49152434D01*
X119211937Y-49018685D01*
X119307305Y-48875956D01*
X119385326Y-48687598D01*
X119425100Y-48487639D01*
X119425100Y-48283761D01*
X119385326Y-48083802D01*
X119307305Y-47895444D01*
X119194037Y-47725926D01*
X119175100Y-47706989D01*
X119175100Y-46127000D01*
X132492534Y-46127000D01*
X132124545Y-46494989D01*
M02*
